<?xml version="1.0" encoding="utf-8"?>
<!-- Generator: Adobe Illustrator 26.3.1, SVG Export Plug-In . SVG Version: 6.00 Build 0)  -->
<svg version="1.1" id="Calque_1" xmlns="http://www.w3.org/2000/svg" xmlns:xlink="http://www.w3.org/1999/xlink" x="0px" y="0px"
	 viewBox="0 0 2573.7 821.5" style="enable-background:new 0 0 2573.7 821.5;" xml:space="preserve">
<style type="text/css">
	.st0{fill:#FFFFFF;}
	.st1{fill:#1D1D1B;}
</style>
<rect class="st0" width="2573" height="821.5"/>
<g>
	<path class="st1" d="M768.6,330.7v-267h32.3v238h115.7v29H768.6z"/>
	<path class="st1" d="M939.7,237.2v-5.8c0-29.1,7.5-52.9,22.7-71.3c15-18.4,35.3-27.6,60.5-27.6s45.5,9.2,60.5,27.6
		c15,18.4,22.7,42.3,22.7,71.3v5.8c0,29.1-7.5,52.9-22.7,71.3c-15,18.4-35.3,27.6-60.5,27.6s-45.5-9.2-60.5-27.6
		C947.4,290,939.7,266.2,939.7,237.2z M971.7,231.3v5.8c0,19.9,4.2,36.7,12.8,50.6c8.6,13.7,21.5,20.6,38.4,20.6s29.8-6.9,38.4-20.6
		c8.6-13.7,12.8-30.6,12.8-50.6v-5.8c0-19.9-4.4-36.7-12.8-50.6c-8.6-13.7-21.5-20.6-38.4-20.6s-29.8,6.9-38.4,20.6
		C975.9,194.5,971.7,211.4,971.7,231.3z"/>
	<path class="st1" d="M1146.5,330.7V49h31.2v281.6H1146.5z"/>
	<path class="st1" d="M1218.1,237.2v-5.8c0-29.1,7.5-52.9,22.7-71.3c15-18.4,35.3-27.6,60.5-27.6s45.5,9.2,60.5,27.6
		c15,18.4,22.7,42.3,22.7,71.3v5.8c0,29.1-7.5,52.9-22.7,71.3c-15,18.4-35.3,27.6-60.5,27.6s-45.5-9.2-60.5-27.6
		C1225.6,290,1218.1,266.2,1218.1,237.2z M1249.9,231.3v5.8c0,19.9,4.2,36.7,12.8,50.6c8.6,13.7,21.5,20.6,38.4,20.6
		s29.8-6.9,38.4-20.6c8.6-13.7,12.8-30.6,12.8-50.6v-5.8c0-19.9-4.4-36.7-12.8-50.6c-8.6-13.7-21.5-20.6-38.4-20.6
		s-29.8,6.9-38.4,20.6C1254.3,194.5,1249.9,211.4,1249.9,231.3z"/>
	<path class="st1" d="M1421.8,262.2V137.8h31.2v124.8c0,15.5,3.1,26.4,9.4,33.1c6.3,6.6,15.3,10,26.9,10c10,0,18.7-3,26.4-8.8
		c7.7-5.8,13.5-13.4,17.8-22.8V137.8h31.2v192.9h-28.2l-1.4-24.8h-1c-6.4,8.8-14.2,15.7-23.4,20.9c-9.2,5-19.4,7.6-30.6,7.6
		c-17.8,0-32-5.6-42.5-16.5C1427.2,306.7,1421.8,288.1,1421.8,262.2z"/>
	<path class="st1" d="M1614.4,406.8v-269h28.2l1.4,25.1h1c4.5-8,11.3-14.8,20.5-20.3c9.2-5.6,20-8.4,32.3-8.4
		c22.4,0,40.2,9.2,53.7,27.5c13.5,18.3,20.1,41.6,20.1,69.7v5.8c0,28.1-6.7,51.4-20.1,69.7c-13.4,18.3-31.3,27.5-53.7,27.5
		c-12.3,0-22.8-2.4-31.4-7.2c-8.6-4.9-15.6-11.2-20.8-19.1V407h-31V406.8z M1645.5,273.5c3.4,8.5,9.2,16.1,16.9,22.9
		c7.8,6.8,17.4,10,28.6,10c16.8,0,29.1-6.6,36.9-19.9c7.8-13.3,11.8-29.8,11.8-49.3v-5.8c0-19.5-4-36.1-11.8-49.3
		c-7.8-13.3-20.1-19.9-36.9-19.9c-11.2,0-20.6,3.4-28.6,10c-7.8,6.8-13.5,14.4-16.9,22.9V273.5z"/>
	<path class="st1" d="M1814.2,330.7v-267h80.8c26.8,0,47.4,7.3,61.9,22.1c14.5,14.8,21.6,34.3,21.6,58.7s-7.2,44.2-21.6,59.1
		c-14.5,14.9-35,22.5-61.9,22.5h-48.6v104.6H1814.2z M1846.4,197.2h48.6c19,0,32.3-5.2,39.9-15.3c7.7-10.2,11.3-22.6,11.3-37.3
		s-3.8-27-11.3-37c-7.7-9.9-20.9-14.9-39.9-14.9h-48.6V197.2z"/>
	<path class="st1" d="M2011.8,330.7V137.8h28.2l1.4,24.8h1c4.5-8.1,10.4-15.2,17.6-21.1c7.2-6.1,16-9.1,26-9.1
		c2.5,0,5.1,0.3,7.7,0.9c2.7,0.7,4.6,1.2,5.7,1.6v31.6c-2.2-0.5-4.6-0.8-7.1-1.1c-2.5-0.3-5.2-0.4-8.1-0.4
		c-10.1,0-18.6,2.8-25.7,8.7c-7.1,5.7-12.3,12.9-15.6,21.4v135.5H2011.8z"/>
	<path class="st1" d="M2118.5,237.2v-5.8c0-29.1,7.5-52.9,22.7-71.3c15-18.4,35.3-27.6,60.5-27.6c25.3,0,45.5,9.2,60.5,27.6
		c15,18.4,22.7,42.3,22.7,71.3v5.8c0,29.1-7.5,52.9-22.7,71.3c-15,18.4-35.3,27.6-60.5,27.6c-25.3,0-45.5-9.2-60.5-27.6
		C2126.1,290,2118.5,266.2,2118.5,237.2z M2150.5,231.3v5.8c0,19.9,4.2,36.7,12.8,50.6c8.6,13.7,21.5,20.6,38.4,20.6
		c16.9,0,29.8-6.9,38.4-20.6c8.6-13.7,12.8-30.6,12.8-50.6v-5.8c0-19.9-4.4-36.7-12.8-50.6c-8.6-13.7-21.5-20.6-38.4-20.6
		s-29.8,6.9-38.4,20.6C2154.7,194.5,2150.5,211.4,2150.5,231.3z"/>
	<path class="st1" d="M2313.4,237.2v-5.8c0-28.1,6.7-51.4,20.1-69.7s31.3-27.5,53.7-27.5c12.3,0,22.8,2.4,31.4,7.2
		c8.6,4.9,15.6,11.2,20.8,19.1V49h31.2v281.6h-28.2l-1.4-25.1h-1c-4.5,8-11.3,14.8-20.5,20.3s-20,8.4-32.3,8.4
		c-22.4,0-40.2-9.2-53.7-27.5C2320.1,288.4,2313.4,265.2,2313.4,237.2z M2345.2,237.2c0,19.5,4,36.1,11.8,49.3
		c7.8,13.3,20.1,19.9,36.9,19.9c11.2,0,20.6-3.4,28.6-10c7.8-6.8,13.5-14.4,16.9-22.9V195c-3.4-8.5-9.2-16.1-16.9-22.9
		c-7.8-6.8-17.4-10-28.6-10c-16.8,0-29.1,6.6-36.9,19.9c-7.8,13.3-11.8,29.8-11.8,49.3V237.2z"/>
</g>
<g>
	<g>
		<path class="st1" d="M1115.2,683.1V541.5h10.2l17.9,106.5c0.3,2,0.6,3.9,0.9,6.1c0.3,2.2,0.6,4.1,0.8,6.1h0.3
			c0.2-2,0.5-3.9,0.8-6.1c0.3-2.2,0.6-4.1,0.9-6.1l17.9-106.5h10.2v141.5h-7.7v-102c0-2,0-4.1,0-6.5c0-2.4,0.2-4.5,0.2-6.5h-0.3
			c-0.2,2-0.5,4.1-0.8,6.5c-0.3,2.4-0.6,4.5-0.9,6.5l-17.1,102h-6.8l-17.1-102c-0.3-2-0.6-4.1-0.9-6.5c-0.3-2.4-0.6-4.5-0.8-6.5
			h-0.3c0.2,2,0.2,4.1,0.2,6.5c0,2.4,0,4.5,0,6.5v102H1115.2z"/>
		<path class="st1" d="M1185.7,652.9c0-10.4,1.7-18.5,5.2-24.2c3.5-5.7,7.9-8.7,13.2-8.7h9.9V613c0-6.1-0.6-11.2-2-15
			c-1.4-3.9-3.7-5.7-6.9-5.7s-5.7,1.6-7.1,4.7c-1.4,3.1-2.2,6.9-2.2,11.2v0.4h-7.7v-0.4c0-8.1,1.5-15.2,4.6-21.3s7.2-9.1,12.5-9.1
			c5.2,0,9.2,3,12.2,8.9c2.9,5.9,4.3,14.8,4.3,26.4v46.7c0,4.1,0.2,8.3,0.5,11.8c0.3,3.7,0.6,7.1,1.2,9.8v1.6h-7.4
			c-0.3-1.6-0.8-3.7-1.1-6.3s-0.5-5.1-0.6-7.7c-1.1,4.1-2.6,7.9-4.9,11.2c-2.3,3.1-5.2,4.9-8.8,4.9c-4.2,0-7.7-2.8-10.5-8.3
			C1187.1,671.3,1185.7,663.2,1185.7,652.9z M1193.4,652c0,5.9,0.8,10.4,2.2,13.8c1.4,3.3,3.7,4.9,6.6,4.9s5.7-2.4,8.2-7.5
			s3.7-10.2,3.7-15.6v-14.8h-8.9c-3.8,0-6.8,1.8-8.8,5.1C1194.4,641.5,1193.4,646.1,1193.4,652z"/>
		<path class="st1" d="M1233.8,683.1V533.9h7.7v94.1l18.5-47h8.6l-27.2,68.3v34.1h-7.5V683.1z M1261.6,683.1l-16.9-53l4.8-12.4
			l21.1,65.4H1261.6z"/>
		<path class="st1" d="M1273.5,633.5v-3.1c0-15.4,1.8-28,5.4-37.8c3.5-9.8,8.3-14.8,14.2-14.8s10.5,4.5,13.7,13.8
			c3.2,9.1,4.8,21.5,4.8,37v7.5h-33.4v-14.4h25.6v-2.4c0-7.5-0.9-13.6-2.6-18.9c-1.7-5.3-4.3-7.7-7.7-7.7c-4,0-7.1,3.7-9.1,11
			c-2,7.3-3.1,16.1-3.1,26.8v3.1c0,10.6,1.1,19.5,3.2,26.8c2.2,7.3,5.4,11,9.9,11c2.8,0,5.1-1.4,7.1-4.3c2-2.8,3.5-6.3,4.8-10
			l4.9,9.3c-1.4,4.9-3.5,9.4-6.3,13.6s-6.3,6.3-10.5,6.3c-6.8,0-11.9-4.9-15.4-14.8C1275.3,661.6,1273.5,648.8,1273.5,633.5z"/>
		<path class="st1" d="M1340.3,683.1V580.9h6.9l0.3,13.2h0.3c1.5-4.5,3.4-8.3,5.5-11c2.2-2.8,4.6-4.1,7.2-4.1c2.9,0,5.4,1.4,7.5,4.1
			s3.7,7.1,4.8,13.2h0.3c1.8-6.1,3.8-10.4,6-13.2c2.2-2.8,4.8-4.1,7.5-4.1c4.5,0,8,3,10.6,8.9c2.6,5.9,3.8,15.7,3.8,29.3v65.9h-7.7
			v-66.1c0-8.1-0.8-14-2.2-17.5c-1.5-3.5-3.5-5.3-6.3-5.3c-2.3,0-4.5,1.6-6.2,4.7c-1.8,3.1-3.2,7.1-4.2,12v72.2h-7.7v-66.1
			c0-8.1-0.8-14-2.2-17.5c-1.5-3.5-3.5-5.3-6.3-5.3c-2.3,0-4.5,1.6-6.2,4.7c-1.8,3.1-3.2,7.1-4.2,12v72.2L1340.3,683.1L1340.3,683.1
			z"/>
		<path class="st1" d="M1412.7,646.8v-65.9h7.7V647c0,8.1,0.8,14,2.3,17.5c1.5,3.5,3.7,5.3,6.6,5.3c2.5,0,4.6-1.6,6.5-4.7
			c1.8-3.1,3.4-7.1,4.3-12v-72.2h7.7v102.2h-6.9l-0.3-13.2h-0.3c-1.5,4.7-3.5,8.3-5.7,11s-4.8,3.9-7.5,3.9c-4.3,0-7.9-3-10.5-8.9
			C1413.9,670.3,1412.7,660.4,1412.7,646.8z"/>
		<path class="st1" d="M1457.2,652.9h7.7v0.4c0,5.9,0.9,10.2,2.8,13.4c1.8,3,4.3,4.5,7.2,4.5c3.1,0,5.4-1.4,7.1-4.3
			c1.7-2.8,2.6-6.5,2.6-11s-0.8-8.1-2.2-10.4c-1.4-2.4-4.5-4.9-9.1-7.5c-4.6-2.6-8.3-6.3-11.1-11c-2.8-4.7-4.2-11.2-4.2-19.7
			c0-8.5,1.5-15.4,4.5-21.1c2.9-5.5,6.9-8.3,11.9-8.3c4.9,0,8.9,2.8,12,8.3c3.1,5.5,4.5,13,4.5,22.4v0.4h-7.7v-0.8
			c0-4.9-0.8-8.7-2.2-11.4c-1.4-2.8-3.7-4.1-6.6-4.1c-2.9,0-5.2,1.4-6.6,3.9c-1.4,2.6-2.2,5.9-2.2,9.6c0,3.7,0.8,6.9,2.5,9.3
			c1.5,2.4,4.8,4.7,9.4,7.3c4.6,2.6,8.3,6.3,10.8,11.2c2.5,4.9,3.8,11.8,3.8,20.9c0,9.1-1.4,16.5-4.3,22.4s-7.2,8.7-12.9,8.7
			c-5.7,0-10.2-3-13.2-8.9c-3.1-5.9-4.5-13.8-4.5-23.6L1457.2,652.9L1457.2,652.9z"/>
		<path class="st1" d="M1500.9,549.8c0-3,0.5-5.5,1.2-7.7c0.8-2.2,2-3.1,3.5-3.1c1.5,0,2.8,1,3.5,3.1c0.8,2.2,1.2,4.7,1.2,7.7
			c0,3-0.5,5.5-1.2,7.7c-0.8,2.2-2,3.1-3.5,3.1c-1.5,0-2.8-1-3.5-3.1C1501.3,555.5,1500.9,552.9,1500.9,549.8z M1502,683.1V580.9
			h7.7v102.2H1502z"/>
		<path class="st1" d="M1519.5,633.5v-3.1c0-15.4,1.8-28,5.4-37.8c3.5-9.8,8.5-14.8,14.6-14.8c5.7,0,10.2,3.7,13.1,11
			c2.9,7.3,4.5,15.6,4.5,24.6v0.4h-7.4v-0.4c0-5.5-0.8-10.4-2.5-14.6c-1.7-4.1-4.2-6.3-7.9-6.3c-4.2,0-7.2,3.7-9.2,11
			c-2,7.3-2.9,16.1-2.9,26.8v3.1c0,10.6,0.9,19.5,2.9,26.8c2,7.3,5.1,11,9.2,11c3.5,0,6.2-2.2,7.9-6.3c1.7-4.1,2.5-9.1,2.5-14.6V650
			h7.4v0.4c0,9.1-1.5,17.3-4.5,24.6c-2.9,7.3-7.4,11-13.1,11c-6.2,0-11.1-4.9-14.6-14.8S1519.5,648.8,1519.5,633.5z"/>
		<path class="st1" d="M1585.7,710.6l4.8-13.6c1.2,3.3,2.9,6.3,5.1,8.9c2.2,2.6,4.6,3.9,7.4,3.9c3.7,0,6.6-2.6,8.8-7.5
			c2.2-4.9,3.2-12,3.2-21.1v-10c-1.2,4.1-2.9,7.7-5.1,10.2c-2.2,2.6-4.8,3.9-7.7,3.9c-5.5,0-9.9-4.9-13.2-14.6
			c-3.4-9.6-4.9-22-4.9-37v-3.1c0-15,1.7-27.2,4.9-37c3.2-9.6,7.7-14.6,13.2-14.6c3.1,0,5.7,1.6,8,4.5c2.3,3,4,6.5,5.1,10.8h0.3
			l0.3-13.4h6.9v100.2c0,14.2-1.8,25.2-5.4,32.9c-3.5,7.7-8.3,11.4-14,11.4c-3.5,0-6.9-1.4-9.9-4.1
			C1590.3,718.5,1587.9,715,1585.7,710.6z M1592,633.5c0,10.4,0.9,19.1,2.9,26.2c1.8,7.1,4.9,10.6,9.1,10.6c2.8,0,5.1-1.8,6.9-5.3
			c1.8-3.5,3.2-7.7,4.2-12.2v-41.5c-0.9-4.5-2.3-8.7-4.2-12.2c-1.8-3.5-4.3-5.3-6.9-5.3c-4.2,0-7.1,3.5-9.1,10.6
			c-1.8,7.1-2.9,15.7-2.9,26.2V633.5z"/>
		<path class="st1" d="M1632.3,633.5v-3.1c0-15.4,1.8-28,5.5-37.8c3.7-9.8,8.6-14.8,14.9-14.8c6.3,0,11.2,4.9,14.9,14.8
			c3.7,9.8,5.5,22.4,5.5,37.8v3.1c0,15.4-1.8,28-5.5,37.8s-8.6,14.8-14.9,14.8c-6.3,0-11.2-4.9-14.9-14.8
			C1634.2,661.4,1632.3,648.8,1632.3,633.5z M1640.2,630.3v3.1c0,10.6,1.1,19.5,3.2,26.8c2.2,7.3,5.2,11,9.4,11
			c4.2,0,7.4-3.7,9.4-11c2-7.3,3.2-16.1,3.2-26.8v-3.1c0-10.6-1.1-19.5-3.2-26.8c-2.2-7.3-5.2-11-9.4-11c-4.2,0-7.4,3.7-9.4,11
			C1641.3,610.8,1640.2,619.9,1640.2,630.3z"/>
		<path class="st1" d="M1698.4,580.7h7.4l8,67.3c0.3,2.6,0.6,4.7,0.8,6.3c0.2,1.6,0.3,3.7,0.6,6.3h0.3c0.2-2.6,0.5-4.7,0.6-6.3
			c0.2-1.6,0.5-3.7,0.8-6.3l9.4-67.3h6.5l9.7,67.3c0.3,2.6,0.6,4.7,0.8,6.3c0.2,1.6,0.3,3.7,0.6,6.3h0.3c0.2-2.6,0.5-4.7,0.6-6.3
			c0.2-1.6,0.3-3.7,0.6-6.3l7.7-67.3h6.9l-13.4,102.2h-6l-9.4-66.1c-0.3-2.6-0.8-5.1-1.1-7.7s-0.6-5.1-0.9-7.7h-0.3
			c-0.3,2.6-0.6,5.1-0.9,7.7c-0.3,2.6-0.6,5.1-1.1,7.7l-9.4,66.1h-6L1698.4,580.7z"/>
		<path class="st1" d="M1767.1,683.1V533.9h7.7v59.6c1.5-4.3,3.5-7.9,5.9-10.6c2.3-2.6,4.9-3.9,7.7-3.9c4,0,7.4,3,10,8.9
			c2.6,5.9,3.8,15.7,3.8,29.3v65.9h-7.7v-66.1c0-8.1-0.8-14-2.3-17.5c-1.5-3.5-3.7-5.3-6.6-5.3c-2.5,0-4.6,1.6-6.5,4.7
			c-1.8,3.1-3.4,7.1-4.3,12v72.2H1767.1z"/>
		<path class="st1" d="M1811.4,633.5v-3.1c0-15.4,1.8-28,5.5-37.8c3.7-9.8,8.6-14.8,14.9-14.8s11.2,4.9,14.9,14.8
			c3.7,9.8,5.5,22.4,5.5,37.8v3.1c0,15.4-1.8,28-5.5,37.8s-8.6,14.8-14.9,14.8s-11.2-4.9-14.9-14.8
			C1813.2,661.4,1811.4,648.8,1811.4,633.5z M1819.2,630.3v3.1c0,10.6,1.1,19.5,3.2,26.8c2.2,7.3,5.2,11,9.4,11
			c4.2,0,7.4-3.7,9.4-11c2-7.3,3.2-16.1,3.2-26.8v-3.1c0-10.6-1.1-19.5-3.2-26.8c-2.2-7.3-5.2-11-9.4-11c-4.2,0-7.4,3.7-9.4,11
			C1820.3,610.8,1819.2,619.9,1819.2,630.3z"/>
		<path class="st1" d="M1859.9,625.2v-3.5c0-17.9,2.2-32.7,6.5-44.1c4.3-11.4,10.2-17.1,17.4-17.1c7.2,0,13.1,5.7,17.4,17.1
			s6.5,26.2,6.5,44.1v3.5c0,17.9-2.2,32.7-6.5,44.1c-4.3,11.4-10.2,17.1-17.4,17.1c-7.2,0-13.1-5.7-17.4-17.1
			C1862,657.9,1859.9,643.1,1859.9,625.2z M1869,621.6v3.5c0,12.4,1.2,22.6,3.7,31.3c2.5,8.5,6.2,12.8,11.1,12.8
			c4.9,0,8.5-4.3,11.1-12.8c2.5-8.5,3.7-18.9,3.7-31.3v-3.5c0-12.4-1.2-22.6-3.7-31.3c-2.5-8.5-6.2-12.8-11.1-12.8
			c-4.9,0-8.5,4.3-11.1,12.8C1870,598.8,1869,609.2,1869,621.6z"/>
		<path class="st1" d="M1916.2,616.9v-4.1c0-20.5,2.5-37.4,7.4-50.4c4.9-13,11.5-19.5,19.9-19.5s14.9,6.5,19.9,19.5
			c4.9,13,7.4,29.9,7.4,50.4v4.1c0,20.5-2.5,37.4-7.4,50.4c-4.9,13-11.5,19.5-19.9,19.5s-14.9-6.5-19.9-19.5
			C1918.7,654.3,1916.2,637.6,1916.2,616.9z M1926.7,612.8v4.1c0,14.2,1.4,26,4.2,35.6c2.8,9.6,7.1,14.6,12.6,14.6
			c5.5,0,9.7-4.9,12.6-14.6c2.8-9.6,4.2-21.7,4.2-35.6v-4.1c0-14.2-1.4-26-4.2-35.6c-2.8-9.6-7.1-14.6-12.6-14.6
			c-5.5,0-9.7,4.9-12.6,14.6C1928.1,586.8,1926.7,598.8,1926.7,612.8z"/>
		<path class="st1" d="M1980.7,608.7v-4.7c0-23,2.8-41.9,8.3-56.7c5.5-14.8,12.9-22,22.3-22s16.8,7.3,22.3,22
			c5.5,14.8,8.3,33.7,8.3,56.7v4.7c0,23-2.8,41.9-8.3,56.7c-5.5,14.8-12.9,22-22.3,22s-16.8-7.3-22.3-22
			C1983.5,650.8,1980.7,631.9,1980.7,608.7z M1992.4,603.9v4.7c0,15.7,1.5,29.1,4.8,40.2c3.2,11,7.9,16.3,14.2,16.3
			c6.3,0,10.9-5.5,14.2-16.3c3.2-11,4.8-24.4,4.8-40.2v-4.7c0-15.7-1.5-29.1-4.8-40.2c-3.2-11-7.9-16.3-14.2-16.3
			c-6.3,0-10.9,5.5-14.2,16.3C1994,574.8,1992.4,588.2,1992.4,603.9z"/>
		<path class="st1" d="M2053.1,600.4v-5.1c0-25.8,3.1-46.7,9.2-63c6.2-16.3,14.5-24.4,24.8-24.4c10.3,0,18.6,8.1,24.8,24.4
			c6.2,16.3,9.2,37.4,9.2,63v5.1c0,25.8-3.1,46.7-9.2,63c-6.2,16.3-14.5,24.4-24.8,24.4c-10.3,0-18.6-8.1-24.8-24.4
			C2056.2,647,2053.1,626.2,2053.1,600.4z M2066.2,595.3v5.1c0,17.5,1.7,32.5,5.2,44.7c3.5,12.2,8.8,18.3,15.7,18.3
			s12.2-6.1,15.7-18.3s5.2-27,5.2-44.7v-5.1c0-17.5-1.7-32.5-5.2-44.7c-3.5-12.2-8.8-18.3-15.7-18.3s-12.2,6.1-15.7,18.3
			C2067.9,562.8,2066.2,577.6,2066.2,595.3z"/>
		<path class="st1" d="M2133.5,592.1v-5.7c0-28.3,3.4-51.4,10.2-69.3c6.8-17.9,15.9-27,27.2-27s20.5,9.1,27.2,27
			c6.8,17.9,10.2,40.9,10.2,69.3v5.7c0,28.3-3.4,51.4-10.2,69.3c-6.8,17.9-15.9,27-27.2,27s-20.5-9.1-27.2-27
			C2136.8,643.5,2133.5,620.5,2133.5,592.1z M2147.8,586.4v5.7c0,19.3,2,35.6,5.9,49c3.8,13.4,9.7,20.1,17.2,20.1
			c7.7,0,13.4-6.7,17.2-20.1c3.8-13.4,5.9-29.7,5.9-49v-5.7c0-19.3-2-35.6-5.9-49c-3.8-13.4-9.7-20.1-17.2-20.1
			c-7.7,0-13.4,6.7-17.2,20.1C2149.8,550.8,2147.8,567.1,2147.8,586.4z"/>
		<path class="st1" d="M2221.8,583.9v-6.3c0-30.9,3.7-56.1,11.1-75.6s17.4-29.3,29.7-29.3c12.5,0,22.3,9.8,29.7,29.3
			s11.1,44.7,11.1,75.6v6.3c0,30.9-3.7,56.1-11.1,75.6s-17.4,29.3-29.7,29.3c-12.5,0-22.3-9.8-29.7-29.3S2221.8,614.8,2221.8,583.9z
			 M2237.5,577.8v6.3c0,21.1,2.2,39,6.3,53.5c4.2,14.6,10.5,21.8,18.9,21.8c8.3,0,14.6-7.3,18.9-21.8c4.2-14.6,6.3-32.5,6.3-53.5
			v-6.3c0-21.1-2.2-39-6.3-53.5c-4.2-14.6-10.5-21.8-18.9-21.8c-8.3,0-14.6,7.3-18.9,21.8C2239.7,538.8,2237.5,556.5,2237.5,577.8z"
			/>
		<path class="st1" d="M2318.2,575.6v-6.7c0-33.5,4-60.6,12-81.9c8-21.3,18.8-31.7,32.2-31.7s24.2,10.6,32.2,31.7
			c8,21.3,12,48.4,12,81.9v6.7c0,33.5-4,60.6-12,81.9c-8,21.3-18.8,31.9-32.2,31.9s-24.2-10.6-32.2-31.9
			C2322.2,636.4,2318.2,609,2318.2,575.6z M2335.1,568.9v6.7c0,22.8,2.3,42.1,6.9,58.1c4.6,15.7,11.4,23.6,20.5,23.6
			c9.1,0,15.9-7.9,20.5-23.6c4.6-15.7,6.9-35,6.9-58.1v-6.7c0-22.8-2.3-42.1-6.9-58.1c-4.6-15.7-11.4-23.6-20.5-23.6
			c-9.1,0-15.9,7.9-20.5,23.6C2337.4,526.8,2335.1,546.1,2335.1,568.9z"/>
	</g>
</g>
<g>
	<path id="path4352" d="M386.1,139c-457.5,36.8-411.3,675.9,47.2,654.5C890.6,756.8,844.6,117.6,386.1,139L386.1,139z M389.4,187
		c359.5-24.7,437.2,476.2,89.9,551.4c2.9-10.4,8.1-35.9,6-37.9c-3.7-4.1,14.9-47.3,23.8-55.1c28.3-28.1,2.6-72.2,21.3-113.9
		c6.5-21,13.3-35.9,18.7-41.4c16.6-21.4,41.6-72.6,67.4-80.2c14-4.9,26.8-25.1,25.5-40.2c-5-39.3-15.4-10.8-28.6-24.5
		c-10.6-12.1-5.3,10.6-15.2,10.9c-4.3,0.3-4.1-2.9,1.2-14.3c3.8-8,6.8-20.6,6.6-28c-0.2-13.1-12.4-43.1-18.1-44.8
		c-41.7,25.2-112,97.9-144.2,83.9c-22.2-6.8-74.5,45.4-117.2,41.9c-79.3,7.1-64.1,27.9-17.8,69.1L298,479.9
		c-14.3,20.5-13.6,34.9-32,53c-14.6,14.8-42.4,57.9-51.3,79.7C212.4,618,190,632,174.4,639C27.5,471.9,155.3,195,389.4,187
		L389.4,187z"/>
	<ellipse class="st0" cx="419.5" cy="382.9" rx="9.8" ry="9.2"/>
	<ellipse class="st0" cx="453.3" cy="371.4" rx="9.8" ry="9.2"/>
	<path d="M251.8,347.1c20.8,12.2,26.8,14,26.8,14c22.8,6.8,19.7,10.4,40.2,15.3c11,2.6,19.7,3.5,23.1,3.8c6,0.5,18.2,1.2,33.5-0.9
		c7.6-1,18-2.5,30.8-7.4c12.2-4.7,20.3-10.3,22.3-11.7c4.6-3.2,12.4-8.7,19.8-18.2c7.8-10.1,10.9-19.3,11.6-21.6
		c1.4-4.3,3.6-11.3,3-20.7c-0.1-1.3-0.4-6.8-2.6-13.6c-1.3-4.1-3.1-9.8-7.6-15.6c-6.7-8.5-15.3-12.1-19.9-14c-9-3.7-16.6-4-21.8-4.2
		c-5.6-0.2-17.1-0.6-29.8,5c-4.4,1.9-11.2,4.9-17.3,11.7c-1.1,1.2-6.1,6.9-9,15.7c-1,3.2-2.5,9-2.1,16.3c0.3,6.4,2.1,11,2.5,11.9
		c1.2,3.1,2.5,6.6,6,10.2c1.7,1.7,5.4,5.5,11.6,6.8c5.2,1.1,9.3,0,12.1-0.7c3.2-0.9,8.1-2.2,12.1-6.4c6.3-6.7,5.4-15.1,5.4-15.7
		c-0.3-2-1-8.1-5.5-11.2c-5.4-3.7-8.1-5-8.1-5c-0.7-0.3-2.1-0.9-2.6-2.2c-0.6-1.4,0.1-3,0.3-3.5c0.8-1.6,2-2.4,2.9-3.1
		c2.9-1.9,4.8-3.1,8.3-4.2c1.7-0.5,6.5-1.9,12.9-1.4s11,2.5,12.3,3.1c1.4,0.7,4,1.9,6.6,4.2c1.2,1.1,3.2,2.9,4.6,5.7
		c1.3,2.6,1.6,4.7,1.9,6.8c0.5,3.6,0.1,6.4-0.1,8.5c-0.6,4.3-1.7,7.7-2.5,9.6c-1.6,4.1-3.4,6.8-5.4,9.8c-1.5,2.3-3.8,5.6-7.5,9.4
		c-0.8,0.9-4.4,4.5-10.1,8.3c-5.7,3.9-10.6,5.9-13.6,7.1c-6.7,2.8-12.1,4-15.6,4.8c-7,1.6-12.4,2.1-16.7,2.5
		c-9.5,0.9-16.8,0.6-21.8,0.5c-7.2-0.3-12.3-0.9-19.3-1.6c-13-1.4-22.7-3.2-25.1-3.7c-9.4-1.7-16.5-3.5-23.9-5.2
		c-10-2.4-15-3.7-15.4-3.9c-0.6-0.3-2.6-1.8-4.9-1.3c-1.7,0.3-2.6,1.4-2.8,1.6c-0.3,0.3-1.2,1.4-0.9,2.6
		C250.6,346.3,251.5,346.8,251.8,347.1z"/>
</g>
</svg>
