<?xml version="1.0" encoding="utf-8"?>
<!-- Generator: Adobe Illustrator 26.3.1, SVG Export Plug-In . SVG Version: 6.00 Build 0)  -->
<svg version="1.1" id="Calque_1" xmlns="http://www.w3.org/2000/svg" xmlns:xlink="http://www.w3.org/1999/xlink" x="0px" y="0px"
	 viewBox="0 0 1000 1000" style="enable-background:new 0 0 1000 1000;" xml:space="preserve">
<style type="text/css">
	.st0{fill:#FFFFFF;}
</style>
<path id="path4352" d="M465.8,0.8c-664.2,56.1-597.2,1031.1,68.5,998.4C1198.3,943.2,1131.5-31.9,465.8,0.8L465.8,0.8z M470.7,74.1
	c522-37.7,634.8,726.4,130.5,841.2c4.2-15.9,11.8-54.8,8.7-57.8c-5.3-6.2,21.6-72.1,34.5-84c41.1-42.8,3.8-110.2,30.9-173.8
	c9.5-32,19.3-54.8,27.1-63.2c24.1-32.7,60.4-110.8,97.9-122.3c20.3-7.5,38.9-38.3,37-61.3c-7.2-60-22.3-16.5-41.5-37.4
	c-15.4-18.4-7.7,16.1-22.1,16.6c-6.3,0.4-5.9-4.4,1.8-21.8c5.5-12.2,9.8-31.5,9.6-42.7c-0.3-20-18-65.8-26.3-68.3
	c-60.6,38.4-162.6,149.3-209.3,128c-32.2-10.4-108.2,69.3-170.2,63.9c-115.2,10.8-93,42.6-25.9,105.4l-15.5,24.3
	c-20.7,31.2-19.8,53.2-46.4,80.8c-21.2,22.6-61.6,88.4-74.5,121.6c-3.3,8.2-35.9,29.5-58.5,40.3C-54.8,508.7,130.7,86.2,470.7,74.1
	L470.7,74.1z"/>
<ellipse class="st0" cx="514.3" cy="372.9" rx="14.3" ry="14.1"/>
<ellipse class="st0" cx="563.4" cy="355.3" rx="14.3" ry="14.1"/>
<path d="M270.9,318.2c30.2,18.6,38.9,21.3,38.9,21.3c33.1,10.4,28.6,15.8,58.4,23.3c16,4,28.6,5.3,33.6,5.8
	c8.7,0.8,26.4,1.8,48.7-1.3c11-1.6,26.2-3.8,44.7-11.3c17.7-7.2,29.5-15.7,32.4-17.8c6.7-4.9,18-13.2,28.7-27.8
	c11.3-15.4,15.8-29.5,16.9-32.9c2-6.5,5.2-17.3,4.4-31.6c-0.1-2-0.6-10.3-3.8-20.7c-1.9-6.3-4.5-15-11.1-23.8
	c-9.7-13-22.2-18.5-28.9-21.3c-13.1-5.6-24.1-6.1-31.6-6.4c-8.1-0.3-24.8-0.9-43.3,7.6c-6.4,2.9-16.2,7.5-25.1,17.8
	c-1.6,1.9-8.9,10.5-13.1,24c-1.5,4.9-3.7,13.8-3.1,24.9c0.5,9.8,3,16.8,3.6,18.2c1.7,4.7,3.7,10.1,8.7,15.6
	c2.4,2.6,7.8,8.4,16.9,10.4c7.5,1.7,13.5,0,17.6-1.1c4.6-1.3,11.7-3.3,17.6-9.8c9.2-10.2,7.9-23,7.8-24c-0.4-3.1-1.4-12.3-8-17.1
	c-7.9-5.7-11.8-7.6-11.8-7.6c-1-0.4-3-1.3-3.8-3.3c-0.9-2.2,0.1-4.6,0.4-5.3c1.1-2.4,2.9-3.7,4.2-4.7c4.2-2.9,6.9-4.8,12-6.4
	c2.4-0.8,9.4-2.9,18.7-2.2c9.3,0.7,16,3.8,17.8,4.7c2.1,1.1,5.8,2.9,9.6,6.4c1.8,1.7,4.6,4.4,6.7,8.7c1.9,3.9,2.3,7.2,2.7,10.4
	c0.7,5.5,0.2,9.7-0.2,12.9c-0.8,6.6-2.5,11.7-3.6,14.7c-2.3,6.2-4.9,10.4-7.8,14.9c-2.2,3.5-5.5,8.6-10.9,14.4
	c-1.2,1.3-6.4,6.9-14.7,12.7c-8.3,5.9-15.4,9-19.8,10.9c-9.7,4.2-17.5,6.1-22.7,7.3c-10.2,2.4-18,3.2-24.2,3.8
	c-13.8,1.3-24.4,0.9-31.6,0.7c-10.5-0.4-17.9-1.3-28-2.4c-18.9-2.2-33-4.9-36.4-5.6c-13.6-2.6-24-5.3-34.7-8
	c-14.5-3.7-21.8-5.6-22.4-6c-0.8-0.5-3.8-2.7-7.1-2c-2.4,0.5-3.8,2.2-4,2.4c-0.4,0.5-1.7,2.2-1.3,4
	C269.1,317,270.4,317.8,270.9,318.2z"/>
</svg>
